<?xml version="1.0" encoding="UTF-8" standalone="no"?>
<svg
   xmlns:dc="http://purl.org/dc/elements/1.1/"
   xmlns:cc="http://creativecommons.org/ns#"
   xmlns:rdf="http://www.w3.org/1999/02/22-rdf-syntax-ns#"
   xmlns:svg="http://www.w3.org/2000/svg"
   xmlns="http://www.w3.org/2000/svg"
   xmlns:xlink="http://www.w3.org/1999/xlink"
   xmlns:sodipodi="http://sodipodi.sourceforge.net/DTD/sodipodi-0.dtd"
   xmlns:inkscape="http://www.inkscape.org/namespaces/inkscape"
   width="64"
   height="64"
   version="1.1"
   viewBox="0 0 64 64"
   id="svg96"
   sodipodi:docname="smother.svg"
   inkscape:version="1.0.1 (3bc2e813f5, 2020-09-07)">
  <sodipodi:namedview
     pagecolor="#ffffff"
     bordercolor="#666666"
     borderopacity="1"
     objecttolerance="10"
     gridtolerance="10"
     guidetolerance="10"
     inkscape:pageopacity="0"
     inkscape:pageshadow="2"
     inkscape:window-width="1920"
     inkscape:window-height="1025"
     id="namedview98"
     showgrid="false"
     inkscape:zoom="13.109375"
     inkscape:cx="22.627436"
     inkscape:cy="27.547628"
     inkscape:window-x="0"
     inkscape:window-y="27"
     inkscape:window-maximized="1"
     inkscape:current-layer="svg96"
     inkscape:document-rotation="0" />
  <metadata
     id="metadata2">
    <rdf:RDF>
      <cc:Work
         rdf:about="">
        <dc:format>image/svg+xml</dc:format>
        <dc:type
           rdf:resource="http://purl.org/dc/dcmitype/StillImage" />
        <dc:title></dc:title>
      </cc:Work>
    </rdf:RDF>
  </metadata>
  <defs
     id="defs24">
    <style
       type="text/css"
       id="style4" />
    <style
       type="text/css"
       id="style6" />
    <style
       type="text/css"
       id="style8" />
    <filter
       id="filter1057"
       x="-.027"
       y="-.027"
       width="1.054"
       height="1.054"
       color-interpolation-filters="sRGB">
      <feGaussianBlur
         stdDeviation="0.61875"
         id="feGaussianBlur10" />
    </filter>
    <linearGradient
       id="linearGradient1053"
       x1="-127"
       x2="-72"
       y1="60"
       y2="5"
       gradientTransform="translate(131.5 -.51)"
       gradientUnits="userSpaceOnUse">
      <stop
         stop-color="#00ccb3"
         stop-opacity=".97255"
         offset="0"
         id="stop13" />
      <stop
         stop-color="#00f3d6"
         stop-opacity=".97255"
         offset="1"
         id="stop15" />
    </linearGradient>
    <style
       type="text/css"
       id="style18" />
    <style
       type="text/css"
       id="style20" />
    <style
       type="text/css"
       id="style22" />
    <filter
       inkscape:collect="always"
       style="color-interpolation-filters:sRGB"
       id="filter2076"
       x="-1.6501625e-06"
       width="1.0000033"
       y="-9.428041e-07"
       height="1.0000019">
      <feGaussianBlur
         inkscape:collect="always"
         stdDeviation="4.958008e-06"
         id="feGaussianBlur2078" />
    </filter>
    <linearGradient
       inkscape:collect="always"
       xlink:href="#linearGradient1053"
       id="linearGradient2102"
       x1="28.39452"
       y1="32"
       x2="35.60548"
       y2="32"
       gradientUnits="userSpaceOnUse" />
  </defs>
  <rect
     x="4.5"
     y="4.5"
     width="55"
     height="55"
     ry="15"
     fill="#141414"
     filter="url(#filter1057)"
     opacity=".3"
     stroke-linecap="round"
     stroke-width="2.7444"
     id="rect26" />
  <rect
     x="4.5"
     y="4.5"
     width="55"
     height="55"
     ry="15"
     fill="url(#linearGradient1053)"
     stroke-linecap="round"
     stroke-width="2.7444"
     id="rect28" />
  <circle
     cx="-1157.3"
     cy="-1276.3"
     r="0"
     fill="#5e4aa6"
     id="circle30" />
  <circle
     cx="-57.764"
     cy="-10.813"
     r="0"
     fill="#5e4aa6"
     fill-rule="evenodd"
     id="circle32" />
  <g
     fill="#5e4aa6"
     id="g94">
    <circle
       cx="-1330.5"
       cy="-1250.3"
       r="0"
       id="circle40" />
    <g
       transform="translate(-81.769 -8.661)"
       id="g48">
      <circle
         cx="-149.15"
         cy="23.855"
         r="0"
         fill-rule="evenodd"
         id="circle42" />
      <circle
         cx="-1150.9"
         cy="-1256.6"
         r="0"
         id="circle44" />
      <circle
         cx="-51.327"
         cy="8.8744"
         r="0"
         fill-rule="evenodd"
         id="circle46" />
    </g>
    <g
       transform="translate(-148.41 -8.661)"
       id="g92">
      <circle
         cx="-1248.7"
         cy="-1241.6"
         r="0"
         id="circle50" />
      <circle
         cx="-149.15"
         cy="23.855"
         r="0"
         fill-rule="evenodd"
         id="circle52" />
      <circle
         cx="-1248.7"
         cy="-1241.6"
         r="0"
         id="circle54" />
      <circle
         cx="-149.15"
         cy="23.855"
         r="0"
         fill-rule="evenodd"
         id="circle56" />
      <circle
         cx="-1150.9"
         cy="-1256.6"
         r="0"
         id="circle58" />
      <circle
         cx="-51.327"
         cy="8.8744"
         r="0"
         fill-rule="evenodd"
         id="circle60" />
      <g
         transform="matrix(3.7796,0,0,3.7796,167.86,4.61)"
         stroke-width=".26458"
         id="g90">
        <g
           transform="translate(-.0272 .0065001)"
           id="g78">
          <circle
             cx="-330.35"
             cy="-328.38"
             r="0"
             id="circle62" />
          <circle
             cx="-312.11"
             cy="-326.25"
             r="0"
             id="circle64" />
          <circle
             cx="-306.02"
             cy="-333.07"
             r="0"
             id="circle66" />
          <circle
             cx="-308.84"
             cy="-326.01"
             r="0"
             id="circle68" />
          <circle
             cx="-330.35"
             cy="-328.38"
             r="0"
             id="circle70" />
          <circle
             cx="-312.11"
             cy="-326.25"
             r="0"
             id="circle72" />
          <circle
             cx="-306.02"
             cy="-333.07"
             r="0"
             id="circle74" />
          <circle
             cx="-308.84"
             cy="-326.01"
             r="0"
             id="circle76" />
        </g>
        <g
           transform="translate(-.02705 .0064503)"
           id="g88">
          <circle
             cx="-330.35"
             cy="-328.38"
             r="0"
             id="circle80" />
          <circle
             cx="-312.11"
             cy="-326.25"
             r="0"
             id="circle82" />
          <circle
             cx="-306.02"
             cy="-333.07"
             r="0"
             id="circle84" />
          <circle
             cx="-308.84"
             cy="-326.01"
             r="0"
             id="circle86" />
        </g>
      </g>
    </g>
  </g>
  <g
     id="g900"
     transform="matrix(0.53660505,0,0,0.53660505,5.1701537,5.1699691)">
    <path
       d="m 87.775,45.841 -5.607,-1.627 c -3.097,-0.898 -6.225,1.097 -7.025,4.364 l -0.638,2.591 -5.57,-1.857 1.722,-5.911 c 1.096,-3.768 -0.466,-7.733 -3.888,-9.866 l -8.165,-5.093 c -5.227,-3.261 -11.982,-3.261 -17.209,0 l -8.165,5.093 c -3.422,2.133 -4.983,6.098 -3.888,9.867 l 1.722,5.909 -5.568,1.856 -0.636,-2.587 c -0.8,-3.247 -3.902,-5.268 -7.031,-4.367 l -5.602,1.627 c -3.029,0.879 -4.84,4.258 -4.037,7.532 0.003,0 0.003,10e-4 0.003,10e-4 l 3.946,16.044 c 0.798,3.239 3.897,5.27 7.031,4.367 l 5.602,-1.627 c 3.029,-0.879 4.84,-4.258 4.034,-7.534 l -0.582,-2.367 6.027,-2.009 2.107,7.232 C 37.481,71.319 41.176,74 45.342,74 h 9.316 c 4.166,0 7.86,-2.681 8.982,-6.521 l 2.107,-7.229 6.026,2.009 -0.583,2.369 c -0.803,3.274 1.008,6.653 4.034,7.532 l 5.607,1.627 c 3.11,0.902 6.228,-1.112 7.025,-4.364 l 3.949,-16.047 c 0,0 0,-10e-4 0.003,-10e-4 0.804,-3.276 -1.006,-6.655 -4.033,-7.534 z"
       id="path883"
       sodipodi:nodetypes="cccccccccccccccccccccccccsscccccccccc" />
  </g>
  <path
     id="path4"
     style="fill:url(#linearGradient2102);stroke-width:0.225353;filter:url(#filter2076);fill-opacity:1.0"
     d="m 32,25.689453 a 3.6056337,3.6056337 0 0 0 -3.605469,3.605469 3.6056337,3.6056337 0 0 0 2.253907,3.339844 v 2.068359 h -1.353516 v 2.253907 h 1.353516 v 1.353515 h 2.703124 V 32.636719 A 3.6056337,3.6056337 0 0 0 35.605469,29.294922 3.6056337,3.6056337 0 0 0 32,25.689453 Z m 0,2.253907 A 1.3521223,1.3521223 0 0 1 33.351562,29.294922 1.3521223,1.3521223 0 0 1 32,30.648438 1.3521223,1.3521223 0 0 1 30.648438,29.294922 1.3521223,1.3521223 0 0 1 32,27.94336 Z" />
</svg>
