<?xml version="1.0" encoding="UTF-8" standalone="no"?>
<svg
   xmlns:dc="http://purl.org/dc/elements/1.1/"
   xmlns:cc="http://creativecommons.org/ns#"
   xmlns:rdf="http://www.w3.org/1999/02/22-rdf-syntax-ns#"
   xmlns:svg="http://www.w3.org/2000/svg"
   xmlns="http://www.w3.org/2000/svg"
   xmlns:sodipodi="http://sodipodi.sourceforge.net/DTD/sodipodi-0.dtd"
   xmlns:inkscape="http://www.inkscape.org/namespaces/inkscape"
   width="64"
   height="64"
   version="1.1"
   viewBox="0 0 64 64"
   id="svg96"
   sodipodi:docname="appimagekit-paymo-widget.svg"
   inkscape:version="1.0.1 (3bc2e813f5, 2020-09-07)">
  <sodipodi:namedview
     pagecolor="#ffffff"
     bordercolor="#666666"
     borderopacity="1"
     objecttolerance="10"
     gridtolerance="10"
     guidetolerance="10"
     inkscape:pageopacity="0"
     inkscape:pageshadow="2"
     inkscape:window-width="867"
     inkscape:window-height="480"
     id="namedview98"
     showgrid="false"
     inkscape:zoom="2.317432"
     inkscape:cx="23.944983"
     inkscape:cy="47.16787"
     inkscape:window-x="0"
     inkscape:window-y="27"
     inkscape:window-maximized="0"
     inkscape:current-layer="svg96" />
  <metadata
     id="metadata2">
    <rdf:RDF>
      <cc:Work
         rdf:about="">
        <dc:format>image/svg+xml</dc:format>
        <dc:type
           rdf:resource="http://purl.org/dc/dcmitype/StillImage" />
        <dc:title />
      </cc:Work>
    </rdf:RDF>
  </metadata>
  <defs
     id="defs24">
    <style
       type="text/css"
       id="style4" />
    <style
       type="text/css"
       id="style6" />
    <style
       type="text/css"
       id="style8" />
    <filter
       id="filter1057"
       x="-.027"
       y="-.027"
       width="1.054"
       height="1.054"
       color-interpolation-filters="sRGB">
      <feGaussianBlur
         stdDeviation="0.61875"
         id="feGaussianBlur10" />
    </filter>
    <linearGradient
       id="linearGradient1053"
       x1="-127"
       x2="-72"
       y1="60"
       y2="5"
       gradientTransform="translate(131.5 -.51)"
       gradientUnits="userSpaceOnUse">
      <stop
         stop-color="#00ccb3"
         stop-opacity=".97255"
         offset="0"
         id="stop13" />
      <stop
         stop-color="#00f3d6"
         stop-opacity=".97255"
         offset="1"
         id="stop15" />
    </linearGradient>
    <style
       type="text/css"
       id="style18" />
    <style
       type="text/css"
       id="style20" />
    <style
       type="text/css"
       id="style22" />
  </defs>
  <rect
     x="4.5"
     y="4.5"
     width="55"
     height="55"
     ry="15"
     fill="#141414"
     filter="url(#filter1057)"
     opacity=".3"
     stroke-linecap="round"
     stroke-width="2.7444"
     id="rect26" />
  <rect
     x="4.5"
     y="4.5"
     width="55"
     height="55"
     ry="15"
     fill="url(#linearGradient1053)"
     stroke-linecap="round"
     stroke-width="2.7444"
     id="rect28" />
  <circle
     cx="-1157.3"
     cy="-1276.3"
     r="0"
     fill="#5e4aa6"
     id="circle30" />
  <circle
     cx="-57.764"
     cy="-10.813"
     r="0"
     fill="#5e4aa6"
     fill-rule="evenodd"
     id="circle32" />
  <g
     fill="#5e4aa6"
     id="g94">
    <circle
       cx="-1330.5"
       cy="-1250.3"
       r="0"
       id="circle40" />
    <g
       transform="translate(-81.769 -8.661)"
       id="g48">
      <circle
         cx="-149.15"
         cy="23.855"
         r="0"
         fill-rule="evenodd"
         id="circle42" />
      <circle
         cx="-1150.9"
         cy="-1256.6"
         r="0"
         id="circle44" />
      <circle
         cx="-51.327"
         cy="8.8744"
         r="0"
         fill-rule="evenodd"
         id="circle46" />
    </g>
    <g
       transform="translate(-148.41 -8.661)"
       id="g92">
      <circle
         cx="-1248.7"
         cy="-1241.6"
         r="0"
         id="circle50" />
      <circle
         cx="-149.15"
         cy="23.855"
         r="0"
         fill-rule="evenodd"
         id="circle52" />
      <circle
         cx="-1248.7"
         cy="-1241.6"
         r="0"
         id="circle54" />
      <circle
         cx="-149.15"
         cy="23.855"
         r="0"
         fill-rule="evenodd"
         id="circle56" />
      <circle
         cx="-1150.9"
         cy="-1256.6"
         r="0"
         id="circle58" />
      <circle
         cx="-51.327"
         cy="8.8744"
         r="0"
         fill-rule="evenodd"
         id="circle60" />
      <g
         transform="matrix(3.7796,0,0,3.7796,167.86,4.61)"
         stroke-width=".26458"
         id="g90">
        <g
           transform="translate(-.0272 .0065001)"
           id="g78">
          <circle
             cx="-330.35"
             cy="-328.38"
             r="0"
             id="circle62" />
          <circle
             cx="-312.11"
             cy="-326.25"
             r="0"
             id="circle64" />
          <circle
             cx="-306.02"
             cy="-333.07"
             r="0"
             id="circle66" />
          <circle
             cx="-308.84"
             cy="-326.01"
             r="0"
             id="circle68" />
          <circle
             cx="-330.35"
             cy="-328.38"
             r="0"
             id="circle70" />
          <circle
             cx="-312.11"
             cy="-326.25"
             r="0"
             id="circle72" />
          <circle
             cx="-306.02"
             cy="-333.07"
             r="0"
             id="circle74" />
          <circle
             cx="-308.84"
             cy="-326.01"
             r="0"
             id="circle76" />
        </g>
        <g
           transform="translate(-.02705 .0064503)"
           id="g88">
          <circle
             cx="-330.35"
             cy="-328.38"
             r="0"
             id="circle80" />
          <circle
             cx="-312.11"
             cy="-326.25"
             r="0"
             id="circle82" />
          <circle
             cx="-306.02"
             cy="-333.07"
             r="0"
             id="circle84" />
          <circle
             cx="-308.84"
             cy="-326.01"
             r="0"
             id="circle86" />
        </g>
      </g>
    </g>
  </g>
  <g
     id="g919"
     transform="matrix(0.23222227,0,0,0.23222227,7.6166617,-10.448381)">
    <g
       id="g907">
      <g
         id="g855"
         transform="matrix(0.98233291,0,0,1.0000602,11.999646,20.199983)">
        <path
           style="fill:#000000;fill-opacity:1;stroke:#000000;stroke-width:0.299091px;stroke-linecap:butt;stroke-linejoin:miter;stroke-opacity:1"
           d="m 94.672954,142.31997 c -24.770476,0.77087 -26.012667,24.87234 -54.144286,24.87234 -28.131621,0 -44.9010193,-25.74593 -44.9010193,-25.74593 0,0 19.9113243,4.36805 23.7840123,-1.07919 3.872691,-5.44723 -23.7840123,-18.91859 -23.7840123,-18.91859 0,0 27.4375113,1.65182 30.1410553,-4.87458 2.703542,-6.52641 -30.1410553,-12.7519 -30.1410553,-12.7519 0,0 29.0610403,-15.028011 55.5851643,-14.411351 26.52412,0.616659 43.460141,9.177064 43.460141,9.177064"
           id="path833"
           sodipodi:nodetypes="cscscscsc" />
        <path
           style="fill:#000000;fill-opacity:1;stroke:#000000;stroke-width:0.299091px;stroke-linecap:butt;stroke-linejoin:miter;stroke-opacity:1"
           d="m 94.672954,142.31997 c 24.770476,0.77087 26.012656,24.87234 54.144286,24.87234 28.13162,0 44.90101,-25.74593 44.90101,-25.74593 0,0 -19.91132,4.36805 -23.78401,-1.07919 -3.87269,-5.44723 23.78401,-18.91859 23.78401,-18.91859 0,0 -27.43751,1.65182 -30.14105,-4.87458 -2.70355,-6.52641 30.14105,-12.7519 30.14105,-12.7519 0,0 -29.06104,-15.028011 -55.58515,-14.411351 -26.52413,0.616659 -43.460146,9.177064 -43.460146,9.177064"
           id="path833-3"
           sodipodi:nodetypes="cscscscsc" />
        <path
           style="fill:none;stroke:#000000;stroke-width:1.165;stroke-linecap:butt;stroke-linejoin:miter;stroke-miterlimit:4;stroke-dasharray:none;stroke-opacity:1"
           d="M 94.672953,142.31997 V 98.587831"
           id="path850" />
      </g>
      <g
         id="g894"
         transform="translate(0.26456327,-5.2916669)">
        <path
           d="m 130.52274,157.89113 c 2.47426,0 4.48235,-2.00685 4.48235,-4.48474 0,-2.93805 2.38873,-5.32921 5.32557,-5.32921 2.93925,0 5.33401,2.38993 5.33401,5.32921 0,2.47789 2.00928,4.48474 4.48114,4.48474 2.48029,0 4.48838,-2.00685 4.48838,-4.48474 0,-7.883 -6.41454,-14.29752 -14.30232,-14.29752 -7.87815,0 -14.28667,6.41452 -14.28667,14.29752 -0.002,2.47789 2.00327,4.48474 4.47754,4.48474 z"
           id="path6"
           style="fill:#ffffff;stroke-width:1.20461" />
        <path
           d="m 59.31783,157.89113 c 2.48029,0 4.485962,-2.00685 4.485962,-4.48474 0,-2.93805 2.387534,-5.32921 5.327985,-5.32921 2.935634,0 5.3316,2.38993 5.3316,5.32921 0,2.47789 2.005673,4.48474 4.479943,4.48474 2.476675,0 4.488371,-2.00685 4.488371,-4.48474 0,-7.883 -6.414541,-14.29752 -14.298707,-14.29752 -7.881758,0 -14.2963,6.41452 -14.2963,14.29752 -0.0012,2.47789 2.004472,4.48474 4.481146,4.48474 z"
           id="path8"
           style="fill:#ffffff;stroke-width:1.20461" />
      </g>
    </g>
    <text
       xml:space="preserve"
       style="font-size:95.3331px;line-height:1.25;font-family:D050000L;-inkscape-font-specification:D050000L;stroke-width:2.23437"
       x="188.44948"
       y="-72.062416"
       id="text898"
       transform="rotate(90)"><tspan
         sodipodi:role="line"
         id="tspan896"
         x="188.44948"
         y="-72.062416"
         style="stroke-width:2.23437">Q</tspan></text>
  </g>
</svg>
